<svg width="11" height="22" viewBox="0 0 11 22" fill="none" xmlns="http://www.w3.org/2000/svg">
<path d="M9.18793 10.9495H8.51472L7.26857 7.26833H3.8309L2.59907 10.9495H1.94019L5.26326 0.922974H5.83621L9.18793 10.9495ZM4.01711 6.65242H7.09668L5.53541 1.93995L4.01711 6.65242Z" fill="white"/>
<g clip-path="url(#clip0_177_100)">
<path fill-rule="evenodd" clip-rule="evenodd" d="M8.77964 14.5803C8.04489 13.8456 6.87516 13.7808 6.06377 14.4299L5.57816 14.8184L5.09254 14.4299C4.28114 13.7808 3.11142 13.8456 2.37667 14.5803C1.6283 15.3287 1.58301 16.5112 2.28421 17.2751C2.89449 17.9399 3.60547 18.6762 4.24552 19.2439C4.56624 19.5283 4.86041 19.7625 5.10923 19.9233C5.37775 20.0968 5.52757 20.1406 5.57816 20.1406C5.62874 20.1406 5.77856 20.0968 6.04709 19.9233C6.29587 19.7625 6.59007 19.5283 6.91078 19.2439C7.55082 18.6762 8.26183 17.9399 8.87212 17.2751C9.5733 16.5112 9.52799 15.3287 8.77964 14.5803ZM5.57909 13.824C6.6992 12.928 8.31396 13.0174 9.32825 14.0317C10.3552 15.0586 10.4403 16.7141 9.44366 17.7998C8.8272 18.4713 8.09525 19.2305 7.42556 19.8243C7.09144 20.1206 6.76406 20.3836 6.4683 20.5749C6.19225 20.7533 5.8745 20.9164 5.57816 20.9164C5.28182 20.9164 4.96406 20.7533 4.68801 20.5749C4.39224 20.3836 4.06487 20.1206 3.73074 19.8243C3.06107 19.2305 2.32913 18.4713 1.71266 17.7998C0.715993 16.7141 0.801114 15.0586 1.82806 14.0317C2.84235 13.0174 4.45711 12.928 5.57723 13.824L5.57816 13.8248L5.57909 13.824Z" fill="white"/>
</g>
<defs>
<clipPath id="clip0_177_100">
<rect width="9.31034" height="9.31035" fill="white" transform="translate(0.922974 12.382)"/>
</clipPath>
</defs>
</svg>
