<svg width="16" height="16" viewBox="0 0 16 16" fill="none" xmlns="http://www.w3.org/2000/svg">
<g clip-path="url(#clip0_16_3407)">
<path d="M15.5152 0.478065C15.316 0.279159 15.0547 0.179565 14.7937 0.179565C14.5324 0.179565 14.2714 0.279159 14.0725 0.478065L11.0712 3.47907V2.9106H0.190857V15.8308H13.1112V4.95066H12.4857L15.5152 1.92075C15.914 1.52297 15.914 0.876534 15.5152 0.478065ZM12.4312 15.1508H0.870888V3.59063H10.96L5.63101 8.91922V10.3908H7.04617L12.4312 5.0051V15.1508ZM15.0344 1.43997L6.76461 9.71078H6.31104V9.20078L14.5536 0.958534C14.64 0.87219 14.7409 0.859597 14.7937 0.859597C14.8465 0.859597 14.9478 0.872503 15.0344 0.95919C15.1214 1.04585 15.1344 1.14716 15.1344 1.19991C15.1344 1.25238 15.1214 1.35297 15.0344 1.43997Z" fill="white"/>
</g>
<defs>
<clipPath id="clip0_16_3407">
<rect width="16" height="16" fill="white"/>
</clipPath>
</defs>
</svg>
