<svg width="34" height="35" viewBox="0 0 34 35" fill="none" xmlns="http://www.w3.org/2000/svg">
<path d="M25.3063 31.2924C25.3063 31.7539 25.3832 32.1462 25.537 32.4693C25.6909 32.777 25.8986 33.0309 26.1601 33.2309C26.4217 33.4155 26.7293 33.5539 27.0832 33.6463C27.437 33.7386 27.814 33.7847 28.214 33.7847C28.814 33.7847 29.3832 33.7001 29.9217 33.5309C30.4755 33.3462 31.0524 33.1001 31.6524 32.7924L32.0447 33.577C31.4755 33.9155 30.8601 34.1847 30.1986 34.3847C29.5524 34.5693 28.9217 34.6616 28.3063 34.6616C27.737 34.6616 27.2063 34.6078 26.714 34.5001C26.2217 34.3924 25.7909 34.2078 25.4217 33.9463C25.0678 33.6847 24.7909 33.3386 24.5909 32.9078C24.4063 32.477 24.314 31.9386 24.314 31.2924V26.5616C24.314 25.6847 24.4986 24.9539 24.8678 24.3693C25.237 23.7847 25.7447 23.3462 26.3909 23.0539C27.037 22.7616 27.7678 22.6155 28.5832 22.6155C29.3986 22.6155 30.1063 22.7616 30.7063 23.0539C31.3217 23.3462 31.7986 23.777 32.137 24.3462C32.4755 24.9155 32.6447 25.6309 32.6447 26.4924V29.2155L25.3063 29.6078V31.2924ZM31.6293 26.377C31.6293 25.7616 31.4909 25.2386 31.214 24.8078C30.9524 24.377 30.5909 24.0462 30.1293 23.8155C29.6832 23.5847 29.1601 23.4693 28.5601 23.4693C27.8986 23.4693 27.3217 23.5924 26.8293 23.8386C26.337 24.0847 25.9601 24.4462 25.6986 24.9232C25.437 25.3847 25.3063 25.9539 25.3063 26.6309V28.6155L31.6293 28.3155V26.377Z" fill="white"/>
<path d="M22.7216 24.1847C22.2908 23.9847 21.8293 23.8309 21.337 23.7232C20.8447 23.6155 20.3677 23.5539 19.9062 23.5386C19.1524 23.5386 18.5293 23.6924 18.037 24.0001C17.56 24.3078 17.2062 24.7386 16.9754 25.2924C16.7447 25.8309 16.6216 26.4616 16.6062 27.1847V30.1616C16.6062 30.7924 16.6754 31.3309 16.8139 31.777C16.9524 32.2232 17.1677 32.5847 17.46 32.8616C17.7677 33.1386 18.137 33.3462 18.5677 33.4847C18.9985 33.6078 19.4985 33.677 20.0677 33.6924C20.4216 33.6924 20.76 33.677 21.0831 33.6463C21.4062 33.6155 21.6985 33.577 21.96 33.5309C22.2216 33.4847 22.4293 33.4463 22.5831 33.4155C22.737 33.3693 22.8216 33.3463 22.837 33.3463L23.0447 34.2693C22.5677 34.3924 22.0677 34.4847 21.5447 34.5463C21.037 34.6232 20.5293 34.6539 20.0216 34.6386C19.1447 34.6232 18.3677 34.4693 17.6908 34.177C17.0293 33.8693 16.5139 33.4078 16.1447 32.7924C15.7908 32.1616 15.6139 31.3539 15.6139 30.3693V27.0693C15.6139 26.177 15.7677 25.4001 16.0754 24.7386C16.3831 24.077 16.8524 23.5616 17.4831 23.1924C18.1293 22.8078 18.9293 22.6155 19.8831 22.6155C20.4062 22.6155 20.9293 22.6847 21.4524 22.8232C21.9908 22.9462 22.5062 23.1232 22.9985 23.3539L22.7216 24.1847Z" fill="white"/>
<path d="M12.7769 26.3306C12.7769 25.7306 12.6693 25.246 12.4539 24.8768C12.2539 24.4922 11.9693 24.1998 11.6 23.9998C11.2462 23.7845 10.8385 23.6383 10.3769 23.5614C9.91541 23.4845 9.43848 23.446 8.94618 23.446L8.99233 22.6383C9.8231 22.6383 10.5385 22.7152 11.1385 22.8691C11.7539 23.0229 12.2539 23.2845 12.6385 23.6537C13.0231 24.0075 13.3077 24.4922 13.4923 25.1075C13.6923 25.7075 13.7923 26.4614 13.7923 27.3691V34.3845C13.8077 34.3845 13.7154 34.3922 13.5154 34.4075C13.3308 34.4229 13.0846 34.4383 12.7769 34.4537C12.4693 34.4845 12.1385 34.5075 11.7846 34.5229C11.4308 34.5537 11.0923 34.5768 10.7693 34.5922C10.4462 34.6075 10.1769 34.6152 9.96156 34.6152C9.19233 34.6306 8.49233 34.5691 7.86156 34.4306C7.24618 34.3075 6.71541 34.0922 6.26925 33.7845C5.83848 33.4614 5.50002 33.0306 5.25387 32.4922C5.0231 31.9537 4.90771 31.2845 4.90771 30.4845V28.5691C4.90771 28.0152 4.98464 27.5229 5.13848 27.0922C5.30771 26.6614 5.54618 26.2998 5.85387 26.0075C6.17695 25.6998 6.55387 25.4691 6.98464 25.3152C7.43079 25.1614 7.93848 25.0845 8.50772 25.0845C9.04618 25.0845 9.56156 25.146 10.0539 25.2691C10.5462 25.3768 11.0231 25.5306 11.4846 25.7306C11.9616 25.9152 12.3923 26.1152 12.7769 26.3306ZM12.7769 27.2306C12.3308 26.9998 11.8693 26.7922 11.3923 26.6075C10.9154 26.4075 10.4308 26.2537 9.93848 26.146C9.44618 26.0229 8.94618 25.9614 8.43848 25.9614C8.10002 25.9614 7.77695 26.0075 7.46925 26.0998C7.16156 26.1922 6.88464 26.346 6.63848 26.5614C6.40771 26.7614 6.2231 27.0306 6.08464 27.3691C5.94618 27.7075 5.87695 28.1229 5.87695 28.6152V30.4152C5.87695 30.9229 5.93079 31.3922 6.03848 31.8229C6.16156 32.2383 6.36925 32.5922 6.66156 32.8845C6.95387 33.1768 7.36156 33.3998 7.88464 33.5537C8.4231 33.6922 9.10002 33.7537 9.91541 33.7383C10.1769 33.7229 10.4462 33.7075 10.7231 33.6922C11 33.6768 11.2616 33.6614 11.5077 33.646C11.7539 33.6152 11.9693 33.5998 12.1539 33.5998C12.3539 33.5845 12.5077 33.5691 12.6154 33.5537C12.7231 33.5383 12.7769 33.5306 12.7769 33.5306V27.2306Z" fill="white"/>
<path d="M32.2286 9.16159C32.2286 8.59236 32.144 8.11543 31.9748 7.73082C31.8056 7.3462 31.5594 7.03851 31.2363 6.80774C30.9286 6.57697 30.5748 6.41543 30.1748 6.32312C29.7748 6.23082 29.344 6.19236 28.8825 6.20774C28.4979 6.20774 28.121 6.2462 27.7517 6.32312C27.3825 6.40005 27.0286 6.50005 26.6902 6.62313C26.3671 6.73082 26.044 6.86928 25.721 7.03851V17.077H24.7056V5.51543H25.721V6.25389C26.0286 6.06928 26.3594 5.90774 26.7133 5.76928C27.0825 5.63082 27.4594 5.52313 27.844 5.4462C28.2286 5.35389 28.6056 5.30774 28.9748 5.30774C29.4517 5.29236 29.9056 5.33082 30.3363 5.42313C30.7671 5.50005 31.1517 5.63082 31.4902 5.81543C31.844 6.00005 32.1517 6.2462 32.4133 6.55389C32.6748 6.8462 32.8748 7.20774 33.0133 7.63851C33.1517 8.05389 33.221 8.5462 33.221 9.11543V17.077H32.2286V9.16159Z" fill="white"/>
<path d="M21.7732 9.02312C21.7732 8.42312 21.6655 7.9385 21.4501 7.56927C21.2501 7.18466 20.9655 6.89235 20.5962 6.69235C20.2424 6.47696 19.8347 6.33081 19.3732 6.25389C18.9116 6.17696 18.4347 6.1385 17.9424 6.1385L17.9885 5.33081C18.8193 5.33081 19.5347 5.40773 20.1347 5.56158C20.7501 5.71543 21.2501 5.97696 21.6347 6.34619C22.0193 6.70004 22.3039 7.18466 22.4885 7.80004C22.6885 8.40004 22.7885 9.15389 22.7885 10.0616V17.077C22.8039 17.077 22.7116 17.0847 22.5116 17.1C22.327 17.1154 22.0809 17.1308 21.7732 17.1462C21.4655 17.177 21.1347 17.2 20.7809 17.2154C20.427 17.2462 20.0885 17.2693 19.7655 17.2847C19.4424 17.3 19.1732 17.3077 18.9578 17.3077C18.1885 17.3231 17.4885 17.2616 16.8578 17.1231C16.2424 17 15.7116 16.7847 15.2655 16.477C14.8347 16.1539 14.4962 15.7231 14.2501 15.1847C14.0193 14.6462 13.9039 13.977 13.9039 13.177V11.2616C13.9039 10.7077 13.9809 10.2154 14.1347 9.78466C14.3039 9.35389 14.5424 8.99235 14.8501 8.70004C15.1732 8.39235 15.5501 8.16158 15.9809 8.00773C16.427 7.85389 16.9347 7.77696 17.5039 7.77696C18.0424 7.77696 18.5578 7.8385 19.0501 7.96158C19.5424 8.06927 20.0193 8.22312 20.4809 8.42312C20.9578 8.60773 21.3885 8.80773 21.7732 9.02312ZM21.7732 9.92312C21.327 9.69235 20.8655 9.48466 20.3885 9.30004C19.9116 9.10004 19.427 8.9462 18.9347 8.8385C18.4424 8.71543 17.9424 8.65389 17.4347 8.65389C17.0962 8.65389 16.7732 8.70004 16.4655 8.79235C16.1578 8.88466 15.8809 9.0385 15.6347 9.25389C15.4039 9.45389 15.2193 9.72312 15.0809 10.0616C14.9424 10.4 14.8732 10.8154 14.8732 11.3077V13.1077C14.8732 13.6154 14.927 14.0847 15.0347 14.5154C15.1578 14.9308 15.3655 15.2847 15.6578 15.577C15.9501 15.8693 16.3578 16.0924 16.8809 16.2462C17.4193 16.3847 18.0962 16.4462 18.9116 16.4308C19.1732 16.4154 19.4424 16.4 19.7193 16.3847C19.9962 16.3693 20.2578 16.3539 20.5039 16.3385C20.7501 16.3077 20.9655 16.2924 21.1501 16.2924C21.3501 16.277 21.5039 16.2616 21.6116 16.2462C21.7193 16.2308 21.7732 16.2231 21.7732 16.2231V9.92312Z" fill="white"/>
<path d="M11.0276 17.0768V0.922974H12.043V17.0768H11.0276Z" fill="white"/>
<path d="M9.13087 13.0154C9.13087 14.4154 8.79241 15.4924 8.11548 16.2462C7.43856 16.9847 6.46164 17.3539 5.18472 17.3539C4.69241 17.3539 4.20779 17.277 3.73087 17.1231C3.25395 16.9693 2.83087 16.7539 2.46164 16.477C2.09241 16.1847 1.81548 15.8693 1.63087 15.5308V21.9693L0.592407 21.5539V5.53851H1.63087V6.66927C2.0001 6.39235 2.37702 6.15389 2.76164 5.95389C3.16164 5.75389 3.56164 5.60004 3.96164 5.49235C4.37702 5.38466 4.78472 5.32312 5.18472 5.30774C6.03087 5.26158 6.74625 5.39235 7.33087 5.70004C7.91548 5.99235 8.36164 6.43081 8.66933 7.01543C8.97702 7.58466 9.13087 8.27697 9.13087 9.09235V13.0154ZM8.11548 9.13851C8.11548 8.60004 8.03087 8.13851 7.86164 7.75389C7.70779 7.36928 7.48472 7.06158 7.19241 6.83081C6.91548 6.60004 6.59241 6.43851 6.22318 6.3462C5.85395 6.2385 5.47702 6.19235 5.09241 6.20774C4.70779 6.22312 4.3001 6.29235 3.86933 6.41543C3.43856 6.53851 3.02318 6.71543 2.62318 6.9462C2.23856 7.16158 1.90779 7.43081 1.63087 7.75389V13.2693C1.63087 13.777 1.73087 14.2308 1.93087 14.6308C2.13087 15.0308 2.4001 15.3693 2.73856 15.6462C3.07702 15.9077 3.46164 16.1077 3.89241 16.2462C4.32318 16.3847 4.76933 16.4462 5.23087 16.4308C5.84625 16.4154 6.36933 16.2847 6.8001 16.0385C7.23087 15.7924 7.55395 15.4385 7.76933 14.977C8.0001 14.5 8.11548 13.9077 8.11548 13.2V9.13851Z" fill="white"/>
</svg>
